<svg width="500" height="500" fill="none" xmlns="http://www.w3.org/2000/svg"><circle cx="250" cy="250" r="250" fill="#705FF4"/><path d="M155.072 172.81c7.726 0 14.503 1.647 20.33 4.94 5.953 3.167 10.513 7.663 13.68 13.49 3.293 5.827 4.94 12.54 4.94 20.14 0 7.6-1.647 14.25-4.94 19.95-3.294 5.7-7.98 10.133-14.06 13.3-5.954 3.167-12.857 4.75-20.71 4.75h-33.44c-.507 0-.76.253-.76.76v53.96c0 1.267-.634 1.9-1.9 1.9h-14.44c-1.267 0-1.9-.633-1.9-1.9V174.71c0-1.267.633-1.9 1.9-1.9h51.3zm-2.47 61.75c6.966 0 12.54-2.09 16.72-6.27 4.306-4.18 6.46-9.69 6.46-16.53 0-6.967-2.154-12.54-6.46-16.72-4.18-4.307-9.754-6.46-16.72-6.46h-31.73c-.507 0-.76.253-.76.76v44.46c0 .507.253.76.76.76h31.73zm57.907 109.25c-.887 0-1.33-.633-1.33-1.9V330.7c0-1.267.633-1.9 1.9-1.9h.38c5.066-.127 9.056-.76 11.97-1.9 2.913-1.14 5.32-3.293 7.22-6.46 1.9-3.04 3.736-7.663 5.51-13.87.126-.127.126-.317 0-.57v-.57l-31.73-94.05-.19-.76c0-.887.57-1.33 1.71-1.33h15.39c1.14 0 1.9.507 2.28 1.52l21.47 71.63c.126.253.316.38.57.38.253 0 .443-.127.57-.38l21.28-71.63c.38-1.013 1.14-1.52 2.28-1.52h15.01c1.393 0 1.9.697 1.52 2.09l-34.58 101.27c-2.914 8.74-5.827 15.2-8.74 19.38-2.914 4.307-6.714 7.347-11.4 9.12-4.687 1.773-11.274 2.66-19.76 2.66h-1.33zM346.85 207.96c10.387 0 18.62 3.04 24.7 9.12 6.08 5.953 9.12 14.06 9.12 24.32v62.7c0 1.267-.633 1.9-1.9 1.9h-14.44c-1.267 0-1.9-.633-1.9-1.9v-59.09c0-6.333-1.837-11.463-5.51-15.39-3.673-3.927-8.55-5.89-14.63-5.89-5.953 0-10.83 1.963-14.63 5.89-3.8 3.927-5.7 8.993-5.7 15.2v59.28c0 1.267-.633 1.9-1.9 1.9h-14.44c-1.267 0-1.9-.633-1.9-1.9v-92.91c0-1.267.633-1.9 1.9-1.9h14.44c1.267 0 1.9.633 1.9 1.9v6.84c0 .253.063.443.19.57.253.127.443.063.57-.19 5.447-6.967 13.49-10.45 24.13-10.45zM415.894 306c-3.547 0-6.46-1.14-8.74-3.42-2.28-2.28-3.42-5.193-3.42-8.74 0-3.547 1.14-6.46 3.42-8.74 2.28-2.28 5.193-3.42 8.74-3.42 3.547 0 6.46 1.14 8.74 3.42 2.28 2.28 3.42 5.193 3.42 8.74 0 3.547-1.14 6.46-3.42 8.74-2.28 2.28-5.193 3.42-8.74 3.42z" fill="#fff"/></svg>