<svg width="500" height="500" viewBox="0 0 500 500" fill="none" xmlns="http://www.w3.org/2000/svg">
<circle cx="250" cy="250" r="250" fill="#705FF4"/>
<path d="M155.072 172.81C162.798 172.81 169.575 174.457 175.402 177.75C181.355 180.917 185.915 185.413 189.082 191.24C192.375 197.067 194.022 203.78 194.022 211.38C194.022 218.98 192.375 225.63 189.082 231.33C185.788 237.03 181.102 241.463 175.022 244.63C169.068 247.797 162.165 249.38 154.312 249.38H120.872C120.365 249.38 120.112 249.633 120.112 250.14V304.1C120.112 305.367 119.478 306 118.212 306H103.772C102.505 306 101.872 305.367 101.872 304.1V174.71C101.872 173.443 102.505 172.81 103.772 172.81H155.072ZM152.602 234.56C159.568 234.56 165.142 232.47 169.322 228.29C173.628 224.11 175.782 218.6 175.782 211.76C175.782 204.793 173.628 199.22 169.322 195.04C165.142 190.733 159.568 188.58 152.602 188.58H120.872C120.365 188.58 120.112 188.833 120.112 189.34V233.8C120.112 234.307 120.365 234.56 120.872 234.56H152.602ZM210.509 343.81C209.622 343.81 209.179 343.177 209.179 341.91V330.7C209.179 329.433 209.812 328.8 211.079 328.8H211.459C216.525 328.673 220.515 328.04 223.429 326.9C226.342 325.76 228.749 323.607 230.649 320.44C232.549 317.4 234.385 312.777 236.159 306.57C236.285 306.443 236.285 306.253 236.159 306C236.159 305.62 236.159 305.43 236.159 305.43L204.429 211.38L204.239 210.62C204.239 209.733 204.809 209.29 205.949 209.29H221.339C222.479 209.29 223.239 209.797 223.619 210.81L245.089 282.44C245.215 282.693 245.405 282.82 245.659 282.82C245.912 282.82 246.102 282.693 246.229 282.44L267.509 210.81C267.889 209.797 268.649 209.29 269.789 209.29H284.799C286.192 209.29 286.699 209.987 286.319 211.38L251.739 312.65C248.825 321.39 245.912 327.85 242.999 332.03C240.085 336.337 236.285 339.377 231.599 341.15C226.912 342.923 220.325 343.81 211.839 343.81H210.509ZM346.85 207.96C357.237 207.96 365.47 211 371.55 217.08C377.63 223.033 380.67 231.14 380.67 241.4V304.1C380.67 305.367 380.037 306 378.77 306H364.33C363.063 306 362.43 305.367 362.43 304.1V245.01C362.43 238.677 360.593 233.547 356.92 229.62C353.247 225.693 348.37 223.73 342.29 223.73C336.337 223.73 331.46 225.693 327.66 229.62C323.86 233.547 321.96 238.613 321.96 244.82V304.1C321.96 305.367 321.327 306 320.06 306H305.62C304.353 306 303.72 305.367 303.72 304.1V211.19C303.72 209.923 304.353 209.29 305.62 209.29H320.06C321.327 209.29 321.96 209.923 321.96 211.19V218.03C321.96 218.283 322.023 218.473 322.15 218.6C322.403 218.727 322.593 218.663 322.72 218.41C328.167 211.443 336.21 207.96 346.85 207.96ZM415.894 306C412.347 306 409.434 304.86 407.154 302.58C404.874 300.3 403.734 297.387 403.734 293.84C403.734 290.293 404.874 287.38 407.154 285.1C409.434 282.82 412.347 281.68 415.894 281.68C419.441 281.68 422.354 282.82 424.634 285.1C426.914 287.38 428.054 290.293 428.054 293.84C428.054 297.387 426.914 300.3 424.634 302.58C422.354 304.86 419.441 306 415.894 306Z" fill="white"/>
</svg>
